{
  "accessors": [
    {
      "bufferView": 2,
      "componentType": 5126,
      "count": 3479,
      "max": [
        0.09370426088571548,
        0.10772570222616196,
        1.8579059839248657
      ],
      "min": [
        -0.0937042310833931,
        -0.08839055150747299,
        1.6233930587768555
      ],
      "type": "VEC3"
    },
    {
      "bufferView": 2,
      "byteOffset": 41748,
      "componentType": 5126,
      "count": 3479,
      "max": [
        0.9999811053276062,
        0.9998748898506165,
        0.9989646077156067
      ],
      "min": [
        -0.9999811053276062,
        -0.999662458896637,
        -0.9826809763908386
      ],
      "type": "VEC3"
    },
    {
      "bufferView": 1,
      "componentType": 5126,
      "count": 3479,
      "max": [
        0.9980469942092896,
        0.9855800271034241
      ],
      "min": [
        3.099999958067201e-05,
        0.01171899028122425
      ],
      "type": "VEC2"
    },
    {
      "bufferView": 0,
      "componentType": 5125,
      "count": 17355,
      "type": "SCALAR"
    },
    {
      "bufferView": 2,
      "byteOffset": 83496,
      "componentType": 5126,
      "count": 3202,
      "max": [
        0.11005699634552002,
        0.13600410521030426,
        1.8592159748077393
      ],
      "min": [
        -0.11002880334854126,
        -0.11420129984617233,
        1.515671968460083
      ],
      "type": "VEC3"
    },
    {
      "bufferView": 2,
      "byteOffset": 121920,
      "componentType": 5126,
      "count": 3202,
      "max": [
        0.9993744492530823,
        0.999976634979248,
        0.9998483657836914
      ],
      "min": [
        -0.9993643760681152,
        -0.9998183846473694,
        -0.9999254941940308
      ],
      "type": "VEC3"
    },
    {
      "bufferView": 1,
      "byteOffset": 27832,
      "componentType": 5126,
      "count": 3202,
      "max": [
        0.9931640028953552,
        0.9974309802055359
      ],
      "min": [
        0.004738000221550465,
        0.003418027888983488
      ],
      "type": "VEC2"
    },
    {
      "bufferView": 0,
      "byteOffset": 69420,
      "componentType": 5125,
      "count": 17382,
      "type": "SCALAR"
    },
    {
      "bufferView": 2,
      "byteOffset": 160344,
      "componentType": 5126,
      "count": 6801,
      "max": [
        0.272053986787796,
        0.280472993850708,
        1.5859520435333252
      ],
      "min": [
        -0.6657689809799194,
        -0.20127959549427032,
        -0.0062390598468482494
      ],
      "type": "VEC3"
    },
    {
      "bufferView": 2,
      "byteOffset": 241956,
      "componentType": 5126,
      "count": 6801,
      "max": [
        0.999987781047821,
        0.9999971389770508,
        0.999363362789154
      ],
      "min": [
        -0.999987781047821,
        -0.9999751448631287,
        -0.9999997615814209
      ],
      "type": "VEC3"
    },
    {
      "bufferView": 1,
      "byteOffset": 53448,
      "componentType": 5126,
      "count": 6801,
      "max": [
        0.9970700144767761,
        0.9973719716072083
      ],
      "min": [
        0.0010209999745711684,
        0.0
      ],
      "type": "VEC2"
    },
    {
      "bufferView": 0,
      "byteOffset": 138948,
      "componentType": 5125,
      "count": 33681,
      "type": "SCALAR"
    },
    {
      "bufferView": 2,
      "byteOffset": 323568,
      "componentType": 5126,
      "count": 2104,
      "max": [
        0.6709768772125244,
        0.28047290444374084,
        1.5859260559082031
      ],
      "min": [
        -0.6618074774742126,
        -0.20127959549427032,
        -0.0062390598468482494
      ],
      "type": "VEC3"
    },
    {
      "bufferView": 2,
      "byteOffset": 348816,
      "componentType": 5126,
      "count": 2104,
      "max": [
        0.9994468688964844,
        0.9993298649787903,
        0.9995487332344055
      ],
      "min": [
        -0.9987576007843018,
        -0.9989417791366577,
        -0.9999997615814209
      ],
      "type": "VEC3"
    },
    {
      "bufferView": 1,
      "byteOffset": 107856,
      "componentType": 5126,
      "count": 2104,
      "max": [
        0.9995120167732239,
        0.9279170036315918
      ],
      "min": [
        0.009429999627172947,
        0.0019530060235410929
      ],
      "type": "VEC2"
    },
    {
      "bufferView": 0,
      "byteOffset": 273672,
      "componentType": 5125,
      "count": 10548,
      "type": "SCALAR"
    },
    {
      "bufferView": 2,
      "byteOffset": 374064,
      "componentType": 5126,
      "count": 5468,
      "max": [
        0.6657738089561462,
        0.155689999461174,
        1.6160609722137451
      ],
      "min": [
        -0.22616110742092133,
        -0.11588960140943527,
        0.07402951270341873
      ],
      "type": "VEC3"
    },
    {
      "bufferView": 2,
      "byteOffset": 439680,
      "componentType": 5126,
      "count": 5468,
      "max": [
        0.9996804594993591,
        0.9998918771743774,
        0.9974552392959595
      ],
      "min": [
        -0.9996806383132935,
        -0.9998918771743774,
        -0.999984860420227
      ],
      "type": "VEC3"
    },
    {
      "bufferView": 1,
      "byteOffset": 124688,
      "componentType": 5126,
      "count": 5468,
      "max": [
        0.8193359971046448,
        0.9943810105323792
      ],
      "min": [
        0.004765000194311142,
        0.0024409890174865723
      ],
      "type": "VEC2"
    },
    {
      "bufferView": 0,
      "byteOffset": 315864,
      "componentType": 5125,
      "count": 22629,
      "type": "SCALAR"
    },
    {
      "bufferView": 2,
      "byteOffset": 505296,
      "componentType": 5126,
      "count": 353,
      "max": [
        0.6517934799194336,
        -0.10867069661617279,
        1.4624749422073364
      ],
      "min": [
        -0.023712750524282455,
        -0.14329349994659424,
        0.9778808951377869
      ],
      "type": "VEC3"
    },
    {
      "bufferView": 2,
      "byteOffset": 509532,
      "componentType": 5126,
      "count": 353,
      "max": [
        0.9886350035667419,
        0.9779989719390869,
        0.9443303346633911
      ],
      "min": [
        -0.9742968678474426,
        -0.9634893536567688,
        -0.9900334477424622
      ],
      "type": "VEC3"
    },
    {
      "bufferView": 3,
      "componentType": 5126,
      "count": 353,
      "max": [
        0.8355787396430969,
        0.8350490927696228,
        0.9843276143074036,
        1.0
      ],
      "min": [
        -1.0,
        -0.8405919075012207,
        -0.9983991384506226,
        -1.0
      ],
      "type": "VEC4"
    },
    {
      "bufferView": 1,
      "byteOffset": 168432,
      "componentType": 5126,
      "count": 353,
      "max": [
        0.8110349774360657,
        0.9951779842376709
      ],
      "min": [
        0.5346680283546448,
        0.136230006814003
      ],
      "type": "VEC2"
    },
    {
      "bufferView": 0,
      "byteOffset": 406380,
      "componentType": 5125,
      "count": 1542,
      "type": "SCALAR"
    }
  ],
  "asset": {
    "extras": {
      "author": "EWTube0 (https://sketchfab.com/EWTube0)",
      "license": "CC-BY-4.0 (http://creativecommons.org/licenses/by/4.0/)",
      "source": "https://sketchfab.com/3d-models/fortnite-travis-scott-42af15222ab14f819708a32972a1d2c8",
      "title": "Fortnite: Travis Scott"
    },
    "generator": "Sketchfab-12.68.0",
    "version": "2.0"
  },
  "bufferViews": [
    {
      "buffer": 0,
      "byteLength": 412548,
      "name": "floatBufferViews",
      "target": 34963
    },
    {
      "buffer": 0,
      "byteLength": 171256,
      "byteOffset": 412548,
      "byteStride": 8,
      "name": "floatBufferViews",
      "target": 34962
    },
    {
      "buffer": 0,
      "byteLength": 513768,
      "byteOffset": 583804,
      "byteStride": 12,
      "name": "floatBufferViews",
      "target": 34962
    },
    {
      "buffer": 0,
      "byteLength": 5648,
      "byteOffset": 1097572,
      "byteStride": 16,
      "name": "floatBufferViews",
      "target": 34962
    }
  ],
  "buffers": [
    {
      "byteLength": 1103220,
      "uri": "scene.bin"
    }
  ],
  "images": [
    {
      "uri": "textures/Model001_Material001_baseColor.png"
    },
    {
      "uri": "textures/Model001_Material002_baseColor.png"
    },
    {
      "uri": "textures/Model001_Material003_baseColor.png"
    },
    {
      "uri": "textures/Model001_Material006_normal.png"
    }
  ],
  "materials": [
    {
      "doubleSided": true,
      "name": "Model001_Material001",
      "pbrMetallicRoughness": {
        "baseColorTexture": {
          "index": 0
        },
        "metallicFactor": 0.0
      }
    },
    {
      "doubleSided": true,
      "name": "Model001_Material002",
      "pbrMetallicRoughness": {
        "baseColorTexture": {
          "index": 1
        },
        "metallicFactor": 0.0
      }
    },
    {
      "doubleSided": true,
      "name": "Model001_Material003",
      "pbrMetallicRoughness": {
        "baseColorTexture": {
          "index": 2
        },
        "metallicFactor": 0.0
      }
    },
    {
      "doubleSided": true,
      "name": "Model001_Material004",
      "pbrMetallicRoughness": {
        "baseColorTexture": {
          "index": 2
        },
        "metallicFactor": 0.0
      }
    },
    {
      "doubleSided": true,
      "name": "Model001_Material005",
      "pbrMetallicRoughness": {
        "baseColorTexture": {
          "index": 2
        },
        "metallicFactor": 0.0
      }
    },
    {
      "doubleSided": true,
      "name": "Model001_Material006",
      "normalTexture": {
        "index": 3
      },
      "pbrMetallicRoughness": {
        "baseColorTexture": {
          "index": 2
        },
        "metallicFactor": 0.0
      }
    }
  ],
  "meshes": [
    {
      "name": "Object_0",
      "primitives": [
        {
          "attributes": {
            "NORMAL": 1,
            "POSITION": 0,
            "TEXCOORD_0": 2
          },
          "indices": 3,
          "material": 0,
          "mode": 4
        }
      ]
    },
    {
      "name": "Object_1",
      "primitives": [
        {
          "attributes": {
            "NORMAL": 5,
            "POSITION": 4,
            "TEXCOORD_0": 6
          },
          "indices": 7,
          "material": 1,
          "mode": 4
        }
      ]
    },
    {
      "name": "Object_2",
      "primitives": [
        {
          "attributes": {
            "NORMAL": 9,
            "POSITION": 8,
            "TEXCOORD_0": 10
          },
          "indices": 11,
          "material": 2,
          "mode": 4
        }
      ]
    },
    {
      "name": "Object_3",
      "primitives": [
        {
          "attributes": {
            "NORMAL": 13,
            "POSITION": 12,
            "TEXCOORD_0": 14
          },
          "indices": 15,
          "material": 3,
          "mode": 4
        }
      ]
    },
    {
      "name": "Object_4",
      "primitives": [
        {
          "attributes": {
            "NORMAL": 17,
            "POSITION": 16,
            "TEXCOORD_0": 18
          },
          "indices": 19,
          "material": 4,
          "mode": 4
        }
      ]
    },
    {
      "name": "Object_5",
      "primitives": [
        {
          "attributes": {
            "NORMAL": 21,
            "POSITION": 20,
            "TANGENT": 22,
            "TEXCOORD_0": 23
          },
          "indices": 24,
          "material": 5,
          "mode": 4
        }
      ]
    }
  ],
  "nodes": [
    {
      "children": [
        1
      ],
      "matrix": [
        1.0,
        0.0,
        0.0,
        0.0,
        0.0,
        2.220446049250313e-16,
        -1.0,
        0.0,
        0.0,
        1.0,
        2.220446049250313e-16,
        0.0,
        0.0,
        0.0,
        0.0,
        1.0
      ],
      "name": "Sketchfab_model"
    },
    {
      "children": [
        2,
        3,
        4,
        5,
        6,
        7
      ],
      "name": "Fortnite Travis Scott.obj.cleaner.materialmerger.gles"
    },
    {
      "mesh": 0,
      "name": "Object_2"
    },
    {
      "mesh": 1,
      "name": "Object_3"
    },
    {
      "mesh": 2,
      "name": "Object_4"
    },
    {
      "mesh": 3,
      "name": "Object_5"
    },
    {
      "mesh": 4,
      "name": "Object_6"
    },
    {
      "mesh": 5,
      "name": "Object_7"
    }
  ],
  "samplers": [
    {
      "magFilter": 9729,
      "minFilter": 9987,
      "wrapS": 10497,
      "wrapT": 10497
    }
  ],
  "scene": 0,
  "scenes": [
    {
      "name": "Sketchfab_Scene",
      "nodes": [
        0
      ]
    }
  ],
  "textures": [
    {
      "sampler": 0,
      "source": 0
    },
    {
      "sampler": 0,
      "source": 1
    },
    {
      "sampler": 0,
      "source": 2
    },
    {
      "sampler": 0,
      "source": 3
    }
  ]
}
